<svg width="36" height="36" viewBox="0 0 36 36" fill="none" xmlns="http://www.w3.org/2000/svg">
    <path fill-rule="evenodd" clip-rule="evenodd" d="M12 7C11.2044 7 10.4413 7.31607 9.87868 7.87868C9.31607 8.44129 9 9.20435 9 10V26C9 26.7957 9.31607 27.5587 9.87868 28.1213C10.4413 28.6839 11.2043 29 12 29H24C24.7957 29 25.5587 28.6839 26.1213 28.1213C26.6839 27.5587 27 26.7957 27 26V15C27 15 27 15 27 15C27 14.7222 26.8867 14.4709 26.7039 14.2897L19.7734 7.35921C19.749 7.33162 19.7231 7.30578 19.6957 7.28169C19.5093 7.10116 19.2599 7 19 7H12ZM18 9H12C11.7348 9 11.4804 9.10536 11.2929 9.29289C11.1054 9.48043 11 9.73478 11 10V26C11 26.2652 11.1054 26.5196 11.2929 26.7071C11.4804 26.8946 11.7348 27 12 27H24C24.2652 27 24.5196 26.8946 24.7071 26.7071C24.8946 26.5196 25 26.2652 25 26V16H19C18.4477 16 18 15.5523 18 15V9ZM23.5858 14L20 10.4142V14H23.5858Z" fill="#0E1013"/>
    <path d="M22 19H14" stroke="#0E1013" stroke-width="2" stroke-linecap="round"/>
    <path d="M22 23H14" stroke="#0E1013" stroke-width="2" stroke-linecap="round"/>
</svg>
