<svg width="36" height="36" viewBox="0 0 36 36" fill="none" xmlns="http://www.w3.org/2000/svg">
    <path fill-rule="evenodd" clip-rule="evenodd" d="M24 9.87869C23.7026 9.87869 23.4174 9.99683 23.2071 10.2071L10.903 22.5113L10.3744 24.6256L12.4887 24.097L24.7929 11.7929C24.897 11.6888 24.9796 11.5652 25.036 11.4291C25.0923 11.2931 25.1213 11.1473 25.1213 11C25.1213 10.8528 25.0923 10.7069 25.036 10.5709C24.9796 10.4349 24.897 10.3112 24.7929 10.2071C24.6888 10.103 24.5651 10.0204 24.4291 9.96405C24.2931 9.9077 24.1472 9.87869 24 9.87869ZM21.7929 8.79291C22.3782 8.20754 23.1722 7.87869 24 7.87869C24.4099 7.87869 24.8158 7.95943 25.1945 8.11629C25.5732 8.27315 25.9173 8.50306 26.2071 8.79291C26.4969 9.08275 26.7269 9.42684 26.8837 9.80554C27.0406 10.1842 27.1213 10.5901 27.1213 11C27.1213 11.4099 27.0406 11.8158 26.8837 12.1945C26.7269 12.5732 26.4969 12.9173 26.2071 13.2071L13.7071 25.7071C13.5789 25.8353 13.4184 25.9262 13.2425 25.9702L9.24253 26.9702C8.90175 27.0553 8.54126 26.9555 8.29288 26.7071C8.0445 26.4587 7.94465 26.0983 8.02985 25.7575L9.02985 21.7575C9.07381 21.5816 9.16473 21.4211 9.29288 21.2929L21.7929 8.79291ZM17 26C17 25.4477 17.4477 25 18 25H27C27.5523 25 28 25.4477 28 26C28 26.5523 27.5523 27 27 27H18C17.4477 27 17 26.5523 17 26Z" fill="#0E1013"/>
</svg>
