<svg width="168" height="56" viewBox="0 0 168 56" fill="none" xmlns="http://www.w3.org/2000/svg">
    <rect width="167" height="56" rx="28" fill="#25A7FF"/>
    <g clip-path="url(#clip0_3_806)">
        <circle cx="140" cy="28" r="28" fill="#25A7FF"/>
    </g>
    <path d="M24.7416 33V22.8182H26.586V31.4538H31.0704V33H24.7416ZM34.7892 33.1541C34.3052 33.1541 33.8694 33.0679 33.4816 32.8956C33.0972 32.7199 32.7922 32.4614 32.5669 32.12C32.3448 31.7786 32.2338 31.3577 32.2338 30.8572C32.2338 30.4264 32.3133 30.0701 32.4724 29.7884C32.6315 29.5066 32.8486 29.2812 33.1237 29.1122C33.3988 28.9432 33.7087 28.8156 34.0534 28.7294C34.4014 28.6399 34.761 28.5753 35.1322 28.5355C35.5796 28.4891 35.9426 28.4477 36.221 28.4112C36.4994 28.3714 36.7016 28.3118 36.8275 28.2322C36.9568 28.1494 37.0214 28.0218 37.0214 27.8494V27.8196C37.0214 27.4451 36.9104 27.1551 36.6883 26.9496C36.4662 26.7441 36.1464 26.6413 35.7288 26.6413C35.288 26.6413 34.9383 26.7375 34.6798 26.9297C34.4246 27.1219 34.2522 27.349 34.1627 27.6108L32.4823 27.3722C32.6149 26.9081 32.8337 26.5204 33.1386 26.2088C33.4435 25.8939 33.8164 25.6586 34.2572 25.5028C34.698 25.3438 35.1852 25.2642 35.7188 25.2642C36.0867 25.2642 36.453 25.3073 36.8176 25.3935C37.1821 25.4796 37.5152 25.6222 37.8169 25.821C38.1185 26.0166 38.3604 26.2834 38.5427 26.6214C38.7283 26.9595 38.8211 27.3821 38.8211 27.8892V33H37.091V31.951H37.0313C36.922 32.1631 36.7678 32.362 36.569 32.5476C36.3734 32.7299 36.1265 32.8774 35.8282 32.9901C35.5332 33.0994 35.1869 33.1541 34.7892 33.1541ZM35.2565 31.8317C35.6177 31.8317 35.931 31.7604 36.1961 31.6179C36.4613 31.4721 36.6651 31.2798 36.8076 31.0412C36.9535 30.8026 37.0264 30.5424 37.0264 30.2607V29.3608C36.97 29.4072 36.8739 29.4503 36.738 29.4901C36.6054 29.5298 36.4563 29.5646 36.2906 29.5945C36.1249 29.6243 35.9608 29.6508 35.7984 29.674C35.636 29.6972 35.4951 29.7171 35.3758 29.7337C35.1073 29.7701 34.867 29.8298 34.6549 29.9126C34.4428 29.9955 34.2754 30.1115 34.1528 30.2607C34.0302 30.4065 33.9688 30.5954 33.9688 30.8274C33.9688 31.1589 34.0898 31.4091 34.3318 31.5781C34.5737 31.7472 34.882 31.8317 35.2565 31.8317ZM45.498 29.7884V25.3636H47.2977V33H45.5526V31.6428H45.4731C45.3008 32.0703 45.0174 32.42 44.623 32.6918C44.2319 32.9635 43.7496 33.0994 43.1762 33.0994C42.6758 33.0994 42.2333 32.9884 41.8488 32.7663C41.4677 32.541 41.1694 32.2145 40.9539 31.7869C40.7385 31.3561 40.6308 30.8357 40.6308 30.2259V25.3636H42.4305V29.9474C42.4305 30.4313 42.5631 30.8158 42.8282 31.1009C43.0934 31.3859 43.4414 31.5284 43.8722 31.5284C44.1374 31.5284 44.3943 31.4638 44.6428 31.3345C44.8914 31.2053 45.0953 31.013 45.2544 30.7578C45.4168 30.4993 45.498 30.1761 45.498 29.7884ZM50.9481 28.5256V33H49.1483V25.3636H50.8685V26.6612H50.958C51.1337 26.2337 51.4137 25.8939 51.7982 25.642C52.186 25.3902 52.6649 25.2642 53.235 25.2642C53.762 25.2642 54.221 25.3769 54.6121 25.6023C55.0065 25.8277 55.3115 26.1541 55.5269 26.5817C55.7456 27.0092 55.8534 27.5279 55.8501 28.1378V33H54.0503V28.4162C54.0503 27.9058 53.9178 27.5064 53.6526 27.218C53.3908 26.9297 53.0278 26.7855 52.5638 26.7855C52.249 26.7855 51.9689 26.8551 51.7236 26.9943C51.4817 27.1302 51.2911 27.3274 51.1519 27.5859C51.016 27.8445 50.9481 28.1577 50.9481 28.5256ZM61.0106 33.1491C60.2483 33.1491 59.5937 32.9818 59.0468 32.647C58.5032 32.3123 58.084 31.8499 57.789 31.2599C57.4973 30.6667 57.3515 29.9839 57.3515 29.2116C57.3515 28.4361 57.5006 27.7517 57.7989 27.1584C58.0972 26.5618 58.5181 26.0978 59.0617 25.7663C59.6086 25.4316 60.2549 25.2642 61.0006 25.2642C61.6204 25.2642 62.1689 25.3786 62.6462 25.6072C63.1268 25.8326 63.5096 26.1525 63.7947 26.5668C64.0797 26.9777 64.2421 27.4583 64.2819 28.0085H62.5617C62.4921 27.6406 62.3264 27.334 62.0645 27.0888C61.806 26.8402 61.4597 26.7159 61.0255 26.7159C60.6576 26.7159 60.3344 26.8153 60.056 27.0142C59.7776 27.2098 59.5605 27.4915 59.4047 27.8594C59.2523 28.2273 59.176 28.6681 59.176 29.1818C59.176 29.7022 59.2523 30.1496 59.4047 30.5241C59.5572 30.8954 59.771 31.1821 60.0461 31.3842C60.3245 31.5831 60.651 31.6825 61.0255 31.6825C61.2906 31.6825 61.5276 31.6328 61.7364 31.5334C61.9485 31.4306 62.1259 31.2831 62.2684 31.0909C62.4109 30.8987 62.5087 30.665 62.5617 30.3899H64.2819C64.2388 30.9302 64.0797 31.4091 63.8046 31.8267C63.5295 32.241 63.155 32.5658 62.681 32.8011C62.2071 33.0331 61.6502 33.1491 61.0106 33.1491ZM67.5594 28.5256V33H65.7597V22.8182H67.5196V26.6612H67.6091C67.7881 26.2304 68.0648 25.8906 68.4394 25.642C68.8172 25.3902 69.2978 25.2642 69.8811 25.2642C70.4114 25.2642 70.8738 25.3752 71.2682 25.5973C71.6626 25.8194 71.9675 26.1442 72.183 26.5717C72.4017 26.9993 72.5111 27.5213 72.5111 28.1378V33H70.7114V28.4162C70.7114 27.9025 70.5788 27.5031 70.3137 27.218C70.0518 26.9297 69.6839 26.7855 69.21 26.7855C68.8918 26.7855 68.6067 26.8551 68.3548 26.9943C68.1063 27.1302 67.9107 27.3274 67.7682 27.5859C67.629 27.8445 67.5594 28.1577 67.5594 28.5256ZM77.8978 33V22.8182H79.7423V31.4538H84.2267V33H77.8978ZM85.748 33V25.3636H87.5477V33H85.748ZM86.6528 24.2798C86.3677 24.2798 86.1225 24.1854 85.917 23.9964C85.7115 23.8042 85.6088 23.5739 85.6088 23.3054C85.6088 23.0336 85.7115 22.8033 85.917 22.6143C86.1225 22.4221 86.3677 22.326 86.6528 22.326C86.9411 22.326 87.1864 22.4221 87.3886 22.6143C87.5941 22.8033 87.6968 23.0336 87.6968 23.3054C87.6968 23.5739 87.5941 23.8042 87.3886 23.9964C87.1864 24.1854 86.9411 24.2798 86.6528 24.2798ZM89.2989 33V31.8565L93.2364 26.9197V26.8551H89.4282V25.3636H95.4388V26.5916L91.6903 31.4439V31.5085H95.5681V33H89.2989ZM97.1602 33V31.8565L101.098 26.9197V26.8551H97.2895V25.3636H103.3V26.5916L99.5516 31.4439V31.5085H103.429V33H97.1602ZM106.24 35.8636C105.994 35.8636 105.767 35.8438 105.559 35.804C105.353 35.7675 105.189 35.7244 105.066 35.6747L105.484 34.2727C105.746 34.349 105.979 34.3854 106.185 34.3821C106.39 34.3788 106.571 34.3142 106.727 34.1882C106.886 34.0656 107.02 33.8601 107.13 33.5717L107.284 33.1591L104.514 25.3636H106.424L108.184 31.1307H108.263L110.028 25.3636H111.942L108.884 33.9247C108.742 34.3291 108.553 34.6754 108.318 34.9638C108.082 35.2554 107.794 35.4775 107.453 35.63C107.115 35.7857 106.71 35.8636 106.24 35.8636Z" fill="white"/>
    <path fill-rule="evenodd" clip-rule="evenodd" d="M129 28C129 21.9247 133.925 17 140 17C146.075 17 151 21.9247 151 28C151 34.0753 146.075 39 140 39C133.925 39 129 34.0753 129 28ZM140 19C135.029 19 131 23.0293 131 28C131 32.9707 135.029 37 140 37C144.971 37 149 32.9707 149 28C149 23.0293 144.971 19 140 19ZM136.707 28.7071C136.317 29.0976 135.683 29.0976 135.293 28.7071C134.902 28.3166 134.902 27.6834 135.293 27.2929L139.293 23.2929C139.683 22.9024 140.317 22.9024 140.707 23.2929L144.707 27.2929C145.098 27.6834 145.098 28.3166 144.707 28.7071C144.317 29.0976 143.683 29.0976 143.293 28.7071L141 26.4142L141 32C141 32.5523 140.552 33 140 33C139.448 33 139 32.5523 139 32L139 26.4142L136.707 28.7071Z" fill="white"/>
    <defs>
        <clipPath id="clip0_3_806">
        <rect x="112" width="56" height="56" rx="28" fill="white"/>
        </clipPath>
    </defs>
</svg>