<svg width="36" height="36" viewBox="0 0 36 36" fill="none" xmlns="http://www.w3.org/2000/svg">
    <path fill-rule="evenodd" clip-rule="evenodd" d="M9 11C8.44772 11 8 11.4477 8 12C8 12.5523 8.44772 13 9 13H18C18.5523 13 19 12.5523 19 12C19 11.4477 18.5523 11 18 11H9ZM9 15C8.44772 15 8 15.4477 8 16C8 16.5523 8.44772 17 9 17H27C27.5523 17 28 16.5523 28 16C28 15.4477 27.5523 15 27 15H9ZM8 20C8 19.4477 8.44772 19 9 19H27C27.5523 19 28 19.4477 28 20C28 20.5523 27.5523 21 27 21H9C8.44772 21 8 20.5523 8 20ZM9 23C8.44772 23 8 23.4477 8 24C8 24.5523 8.44772 25 9 25H27C27.5523 25 28 24.5523 28 24C28 23.4477 27.5523 23 27 23H9Z" fill="#0E1013"/>
</svg>
