<svg width="28" height="28" viewBox="0 0 28 28" fill="none" xmlns="http://www.w3.org/2000/svg">
<path fill-rule="evenodd" clip-rule="evenodd" d="M15.1667 4.08335C15.1667 3.43902 14.6443 2.91669 14 2.91669C13.3557 2.91669 12.8333 3.43902 12.8333 4.08335V15.1667C12.8333 15.811 13.3557 16.3334 14 16.3334C14.6443 16.3334 15.1667 15.811 15.1667 15.1667V4.08335ZM6.65006 6.50155C7.11017 6.05049 7.11752 5.31184 6.66645 4.85172C6.21539 4.3916 5.47674 4.38426 5.01662 4.83532C2.64209 7.16312 1.16667 10.4104 1.16667 14.0001C1.16667 21.0878 6.91235 26.8334 14 26.8334C21.0877 26.8334 26.8333 21.0878 26.8333 14.0001C26.8333 10.4104 25.3579 7.16312 22.9834 4.83532C22.5233 4.38426 21.7846 4.3916 21.3336 4.85172C20.8825 5.31184 20.8898 6.05049 21.35 6.50155C23.2953 8.40858 24.5 11.0626 24.5 14.0001C24.5 19.7991 19.799 24.5001 14 24.5001C8.20102 24.5001 3.50001 19.7991 3.50001 14.0001C3.50001 11.0626 4.70474 8.40858 6.65006 6.50155Z" fill="#0E1013"/>
</svg>
