<svg width="36" height="36" viewBox="0 0 36 36" fill="none" xmlns="http://www.w3.org/2000/svg">
    <path fill-rule="evenodd" clip-rule="evenodd" d="M7.29289 12.7071C6.90237 12.3166 6.90237 11.6834 7.29289 11.2929C7.68342 10.9024 8.31658 10.9024 8.70711 11.2929L14.7071 17.2929C15.0976 17.6834 15.0976 18.3166 14.7071 18.7071L8.70711 24.7071C8.31658 25.0976 7.68342 25.0976 7.29289 24.7071C6.90237 24.3166 6.90237 23.6834 7.29289 23.2929L12.5858 18L7.29289 12.7071ZM27.2929 11.2929C27.6834 10.9024 28.3166 10.9024 28.7071 11.2929C29.0976 11.6834 29.0976 12.3166 28.7071 12.7071L23.4142 18L28.7071 23.2929C29.0976 23.6834 29.0976 24.3166 28.7071 24.7071C28.3166 25.0976 27.6834 25.0976 27.2929 24.7071L21.2929 18.7071C20.9024 18.3166 20.9024 17.6834 21.2929 17.2929L27.2929 11.2929Z" fill="#0E1013"/>
</svg>
