<svg width="36" height="36" viewBox="0 0 36 36" fill="none" xmlns="http://www.w3.org/2000/svg">
<path fill-rule="evenodd" clip-rule="evenodd" d="M8 9C8 8.44772 8.44772 8 9 8H16C16.5523 8 17 8.44772 17 9V16C17 16.5523 16.5523 17 16 17H9C8.44772 17 8 16.5523 8 16V9ZM10 10V15H15V10H10ZM19 9C19 8.44772 19.4477 8 20 8H27C27.5523 8 28 8.44772 28 9V16C28 16.5523 27.5523 17 27 17H20C19.4477 17 19 16.5523 19 16V9ZM21 10V15H26V10H21ZM8 20C8 19.4477 8.44772 19 9 19H16C16.5523 19 17 19.4477 17 20V27C17 27.5523 16.5523 28 16 28H9C8.44772 28 8 27.5523 8 27V20ZM10 21V26H15V21H10ZM19 20C19 19.4477 19.4477 19 20 19H27C27.5523 19 28 19.4477 28 20V27C28 27.5523 27.5523 28 27 28H20C19.4477 28 19 27.5523 19 27V20ZM21 21V26H26V21H21Z" fill="#0E1013"/>
</svg>
