<svg width="36" height="36" viewBox="0 0 36 36" fill="none" xmlns="http://www.w3.org/2000/svg">
    <path fill-rule="evenodd" clip-rule="evenodd" d="M14.7071 12.7071C15.0976 12.3166 15.0976 11.6834 14.7071 11.2929C14.3166 10.9024 13.6834 10.9024 13.2929 11.2929L7.29289 17.2929C6.90237 17.6834 6.90237 18.3166 7.29289 18.7071L13.2929 24.7071C13.6834 25.0976 14.3166 25.0976 14.7071 24.7071C15.0976 24.3166 15.0976 23.6834 14.7071 23.2929L9.41421 18L14.7071 12.7071ZM22.7071 11.2929C22.3166 10.9024 21.6834 10.9024 21.2929 11.2929C20.9024 11.6834 20.9024 12.3166 21.2929 12.7071L26.5858 18L21.2929 23.2929C20.9024 23.6834 20.9024 24.3166 21.2929 24.7071C21.6834 25.0976 22.3166 25.0976 22.7071 24.7071L28.7071 18.7071C29.0976 18.3166 29.0976 17.6834 28.7071 17.2929L22.7071 11.2929Z" fill="#0E1013"/>
</svg>
