<svg width="172" height="56" viewBox="0 0 172 56" fill="none" xmlns="http://www.w3.org/2000/svg">
    <rect width="172" height="56" rx="28" fill="#ABABAC"/>
    <path d="M18.3 24.3643V22.8182H26.4236V24.3643H23.2765V33H21.447V24.3643H18.3ZM31.7382 29.7884V25.3636H33.5379V33H31.7929V31.6428H31.7133C31.541 32.0703 31.2576 32.42 30.8632 32.6918C30.4721 32.9635 29.9898 33.0994 29.4165 33.0994C28.916 33.0994 28.4735 32.9884 28.089 32.7663C27.7079 32.541 27.4096 32.2145 27.1942 31.7869C26.9787 31.3561 26.871 30.8357 26.871 30.2259V25.3636H28.6707V29.9474C28.6707 30.4313 28.8033 30.8158 29.0684 31.1009C29.3336 31.3859 29.6816 31.5284 30.1125 31.5284C30.3776 31.5284 30.6345 31.4638 30.8831 31.3345C31.1317 31.2053 31.3355 31.013 31.4946 30.7578C31.657 30.4993 31.7382 30.1761 31.7382 29.7884ZM35.3886 33V25.3636H37.1336V26.6364H37.2132C37.3524 26.1955 37.591 25.8558 37.9291 25.6172C38.2704 25.3752 38.6599 25.2543 39.0974 25.2543C39.1968 25.2543 39.3079 25.2592 39.4305 25.2692C39.5564 25.2758 39.6608 25.2874 39.7437 25.304V26.9595C39.6675 26.933 39.5465 26.9098 39.3808 26.8899C39.2184 26.8667 39.0609 26.8551 38.9085 26.8551C38.5803 26.8551 38.2854 26.9264 38.0235 27.0689C37.765 27.2081 37.5612 27.402 37.412 27.6506C37.2629 27.8991 37.1883 28.1858 37.1883 28.5107V33H35.3886ZM42.7391 28.5256V33H40.9394V25.3636H42.6595V26.6612H42.749C42.9247 26.2337 43.2048 25.8939 43.5892 25.642C43.977 25.3902 44.4559 25.2642 45.026 25.2642C45.553 25.2642 46.012 25.3769 46.4031 25.6023C46.7976 25.8277 47.1025 26.1541 47.3179 26.5817C47.5367 27.0092 47.6444 27.5279 47.6411 28.1378V33H45.8414V28.4162C45.8414 27.9058 45.7088 27.5064 45.4436 27.218C45.1818 26.9297 44.8189 26.7855 44.3548 26.7855C44.04 26.7855 43.7599 26.8551 43.5146 26.9943C43.2727 27.1302 43.0821 27.3274 42.9429 27.5859C42.807 27.8445 42.7391 28.1577 42.7391 28.5256ZM53.0228 33V22.8182H54.8673V31.4538H59.3517V33H53.0228ZM60.873 33V25.3636H62.6727V33H60.873ZM61.7778 24.2798C61.4927 24.2798 61.2475 24.1854 61.042 23.9964C60.8365 23.8042 60.7338 23.5739 60.7338 23.3054C60.7338 23.0336 60.8365 22.8033 61.042 22.6143C61.2475 22.4221 61.4927 22.326 61.7778 22.326C62.0661 22.326 62.3114 22.4221 62.5136 22.6143C62.7191 22.8033 62.8218 23.0336 62.8218 23.3054C62.8218 23.5739 62.7191 23.8042 62.5136 23.9964C62.3114 24.1854 62.0661 24.2798 61.7778 24.2798ZM64.4239 33V31.8565L68.3614 26.9197V26.8551H64.5532V25.3636H70.5638V26.5916L66.8153 31.4439V31.5085H70.6931V33H64.4239ZM72.2852 33V31.8565L76.2227 26.9197V26.8551H72.4145V25.3636H78.4252V26.5916L74.6766 31.4439V31.5085H78.5544V33H72.2852ZM81.3646 35.8636C81.1193 35.8636 80.8923 35.8438 80.6835 35.804C80.478 35.7675 80.314 35.7244 80.1913 35.6747L80.6089 34.2727C80.8708 34.349 81.1044 34.3854 81.3099 34.3821C81.5154 34.3788 81.6961 34.3142 81.8518 34.1882C82.0109 34.0656 82.1452 33.8601 82.2545 33.5717L82.4086 33.1591L79.6395 25.3636H81.5486L83.3085 31.1307H83.3881L85.153 25.3636H87.067L84.0095 33.9247C83.867 34.3291 83.6781 34.6754 83.4427 34.9638C83.2074 35.2554 82.9191 35.4775 82.5777 35.63C82.2396 35.7857 81.8353 35.8636 81.3646 35.8636ZM100.963 27.9091C100.963 29.0062 100.757 29.9458 100.346 30.728C99.9385 31.5069 99.3817 32.1035 98.6757 32.5178C97.973 32.9321 97.1759 33.1392 96.2844 33.1392C95.3928 33.1392 94.594 32.9321 93.8881 32.5178C93.1854 32.1001 92.6286 31.5019 92.2176 30.723C91.8099 29.9408 91.6061 29.0028 91.6061 27.9091C91.6061 26.812 91.8099 25.8741 92.2176 25.0952C92.6286 24.313 93.1854 23.7147 93.8881 23.3004C94.594 22.8861 95.3928 22.679 96.2844 22.679C97.1759 22.679 97.973 22.8861 98.6757 23.3004C99.3817 23.7147 99.9385 24.313 100.346 25.0952C100.757 25.8741 100.963 26.812 100.963 27.9091ZM99.1082 27.9091C99.1082 27.1368 98.9872 26.4856 98.7453 25.9553C98.5067 25.4216 98.1752 25.0189 97.751 24.7472C97.3267 24.4721 96.8379 24.3345 96.2844 24.3345C95.7309 24.3345 95.242 24.4721 94.8177 24.7472C94.3935 25.0189 94.0604 25.4216 93.8184 25.9553C93.5798 26.4856 93.4605 27.1368 93.4605 27.9091C93.4605 28.6813 93.5798 29.3343 93.8184 29.8679C94.0604 30.3982 94.3935 30.8009 94.8177 31.076C95.242 31.3478 95.7309 31.4837 96.2844 31.4837C96.8379 31.4837 97.3267 31.3478 97.751 31.076C98.1752 30.8009 98.5067 30.3982 98.7453 29.8679C98.9872 29.3343 99.1082 28.6813 99.1082 27.9091ZM106.495 25.3636V26.7557H101.981V25.3636H106.495ZM103.109 33V24.6428C103.109 24.129 103.215 23.7015 103.427 23.3601C103.643 23.0187 103.931 22.7635 104.292 22.5945C104.654 22.4254 105.055 22.3409 105.495 22.3409C105.807 22.3409 106.084 22.3658 106.326 22.4155C106.568 22.4652 106.747 22.5099 106.863 22.5497L106.505 23.9418C106.428 23.9186 106.332 23.8954 106.216 23.8722C106.1 23.8456 105.971 23.8324 105.829 23.8324C105.494 23.8324 105.257 23.9136 105.118 24.076C104.982 24.2351 104.914 24.4638 104.914 24.7621V33H103.109ZM111.772 25.3636V26.7557H107.258V25.3636H111.772ZM108.386 33V24.6428C108.386 24.129 108.493 23.7015 108.705 23.3601C108.92 23.0187 109.208 22.7635 109.57 22.5945C109.931 22.4254 110.332 22.3409 110.773 22.3409C111.084 22.3409 111.361 22.3658 111.603 22.4155C111.845 22.4652 112.024 22.5099 112.14 22.5497L111.782 23.9418C111.706 23.9186 111.61 23.8954 111.494 23.8722C111.378 23.8456 111.248 23.8324 111.106 23.8324C110.771 23.8324 110.534 23.9136 110.395 24.076C110.259 24.2351 110.191 24.4638 110.191 24.7621V33H108.386Z" fill="white"/>
    <path fill-rule="evenodd" clip-rule="evenodd" d="M143.167 18.0833C143.167 17.439 142.644 16.9167 142 16.9167C141.356 16.9167 140.833 17.439 140.833 18.0833V29.1667C140.833 29.811 141.356 30.3333 142 30.3333C142.644 30.3333 143.167 29.811 143.167 29.1667V18.0833ZM134.65 20.5015C135.11 20.0505 135.118 19.3118 134.666 18.8517C134.215 18.3916 133.477 18.3842 133.017 18.8353C130.642 21.1631 129.167 24.4103 129.167 28.0001C129.167 35.0877 134.912 40.8334 142 40.8334C149.088 40.8334 154.833 35.0877 154.833 28.0001C154.833 24.4103 153.358 21.1631 150.983 18.8353C150.523 18.3842 149.785 18.3916 149.334 18.8517C148.882 19.3118 148.89 20.0505 149.35 20.5015C151.295 22.4086 152.5 25.0626 152.5 28.0001C152.5 33.7991 147.799 38.5001 142 38.5001C136.201 38.5001 131.5 33.7991 131.5 28.0001C131.5 25.0626 132.705 22.4086 134.65 20.5015Z" fill="white"/>
</svg>
