<svg width="172" height="56" viewBox="0 0 172 56" fill="none" xmlns="http://www.w3.org/2000/svg">
    <rect width="172" height="56" rx="28" fill="#ABABAC"/>
    <path d="M19.3117 24.3643V22.8182H27.4353V24.3643H24.2883V33H22.4587V24.3643H19.3117ZM32.7499 29.7884V25.3636H34.5496V33H32.8046V31.6428H32.7251C32.5527 32.0703 32.2693 32.42 31.8749 32.6918C31.4838 32.9635 31.0016 33.0994 30.4282 33.0994C29.9277 33.0994 29.4852 32.9884 29.1008 32.7663C28.7196 32.541 28.4213 32.2145 28.2059 31.7869C27.9904 31.3561 27.8827 30.8357 27.8827 30.2259V25.3636H29.6824V29.9474C29.6824 30.4313 29.815 30.8158 30.0802 31.1009C30.3453 31.3859 30.6933 31.5284 31.1242 31.5284C31.3894 31.5284 31.6462 31.4638 31.8948 31.3345C32.1434 31.2053 32.3472 31.013 32.5063 30.7578C32.6687 30.4993 32.7499 30.1761 32.7499 29.7884ZM36.4003 33V25.3636H38.1453V26.6364H38.2249C38.3641 26.1955 38.6027 25.8558 38.9408 25.6172C39.2822 25.3752 39.6716 25.2543 40.1091 25.2543C40.2085 25.2543 40.3196 25.2592 40.4422 25.2692C40.5682 25.2758 40.6726 25.2874 40.7554 25.304V26.9595C40.6792 26.933 40.5582 26.9098 40.3925 26.8899C40.2301 26.8667 40.0727 26.8551 39.9202 26.8551C39.5921 26.8551 39.2971 26.9264 39.0352 27.0689C38.7767 27.2081 38.5729 27.402 38.4237 27.6506C38.2746 27.8991 38.2 28.1858 38.2 28.5107V33H36.4003ZM43.7508 28.5256V33H41.9511V25.3636H43.6713V26.6612H43.7607C43.9364 26.2337 44.2165 25.8939 44.6009 25.642C44.9887 25.3902 45.4677 25.2642 46.0377 25.2642C46.5647 25.2642 47.0238 25.3769 47.4149 25.6023C47.8093 25.8277 48.1142 26.1541 48.3296 26.5817C48.5484 27.0092 48.6561 27.5279 48.6528 28.1378V33H46.8531V28.4162C46.8531 27.9058 46.7205 27.5064 46.4553 27.218C46.1935 26.9297 45.8306 26.7855 45.3666 26.7855C45.0517 26.7855 44.7716 26.8551 44.5264 26.9943C44.2844 27.1302 44.0938 27.3274 43.9546 27.5859C43.8187 27.8445 43.7508 28.1577 43.7508 28.5256ZM54.0345 33V22.8182H55.879V31.4538H60.3634V33H54.0345ZM61.8847 33V25.3636H63.6844V33H61.8847ZM62.7895 24.2798C62.5045 24.2798 62.2592 24.1854 62.0537 23.9964C61.8482 23.8042 61.7455 23.5739 61.7455 23.3054C61.7455 23.0336 61.8482 22.8033 62.0537 22.6143C62.2592 22.4221 62.5045 22.326 62.7895 22.326C63.0779 22.326 63.3231 22.4221 63.5253 22.6143C63.7308 22.8033 63.8335 23.0336 63.8335 23.3054C63.8335 23.5739 63.7308 23.8042 63.5253 23.9964C63.3231 24.1854 63.0779 24.2798 62.7895 24.2798ZM65.4356 33V31.8565L69.3731 26.9197V26.8551H65.5649V25.3636H71.5756V26.5916L67.827 31.4439V31.5085H71.7048V33H65.4356ZM73.297 33V31.8565L77.2345 26.9197V26.8551H73.4262V25.3636H79.4369V26.5916L75.6883 31.4439V31.5085H79.5661V33H73.297ZM82.3763 35.8636C82.1311 35.8636 81.904 35.8438 81.6952 35.804C81.4897 35.7675 81.3257 35.7244 81.203 35.6747L81.6206 34.2727C81.8825 34.349 82.1162 34.3854 82.3216 34.3821C82.5271 34.3788 82.7078 34.3142 82.8635 34.1882C83.0226 34.0656 83.1569 33.8601 83.2662 33.5717L83.4204 33.1591L80.6512 25.3636H82.5603L84.3202 31.1307H84.3998L86.1647 25.3636H88.0787L85.0212 33.9247C84.8787 34.3291 84.6898 34.6754 84.4545 34.9638C84.2191 35.2554 83.9308 35.4775 83.5894 35.63C83.2513 35.7857 82.847 35.8636 82.3763 35.8636ZM101.974 27.9091C101.974 29.0062 101.769 29.9458 101.358 30.728C100.95 31.5069 100.393 32.1035 99.6874 32.5178C98.9848 32.9321 98.1876 33.1392 97.2961 33.1392C96.4045 33.1392 95.6057 32.9321 94.8998 32.5178C94.1971 32.1001 93.6403 31.5019 93.2293 30.723C92.8216 29.9408 92.6178 29.0028 92.6178 27.9091C92.6178 26.812 92.8216 25.8741 93.2293 25.0952C93.6403 24.313 94.1971 23.7147 94.8998 23.3004C95.6057 22.8861 96.4045 22.679 97.2961 22.679C98.1876 22.679 98.9848 22.8861 99.6874 23.3004C100.393 23.7147 100.95 24.313 101.358 25.0952C101.769 25.8741 101.974 26.812 101.974 27.9091ZM100.12 27.9091C100.12 27.1368 99.999 26.4856 99.757 25.9553C99.5184 25.4216 99.1869 25.0189 98.7627 24.7472C98.3385 24.4721 97.8496 24.3345 97.2961 24.3345C96.7426 24.3345 96.2537 24.4721 95.8295 24.7472C95.4052 25.0189 95.0721 25.4216 94.8302 25.9553C94.5915 26.4856 94.4722 27.1368 94.4722 27.9091C94.4722 28.6813 94.5915 29.3343 94.8302 29.8679C95.0721 30.3982 95.4052 30.8009 95.8295 31.076C96.2537 31.3478 96.7426 31.4837 97.2961 31.4837C97.8496 31.4837 98.3385 31.3478 98.7627 31.076C99.1869 30.8009 99.5184 30.3982 99.757 29.8679C99.999 29.3343 100.12 28.6813 100.12 27.9091ZM105.438 28.5256V33H103.639V25.3636H105.359V26.6612H105.448C105.624 26.2337 105.904 25.8939 106.288 25.642C106.676 25.3902 107.155 25.2642 107.725 25.2642C108.252 25.2642 108.711 25.3769 109.102 25.6023C109.497 25.8277 109.802 26.1541 110.017 26.5817C110.236 27.0092 110.344 27.5279 110.34 28.1378V33H108.541V28.4162C108.541 27.9058 108.408 27.5064 108.143 27.218C107.881 26.9297 107.518 26.7855 107.054 26.7855C106.739 26.7855 106.459 26.8551 106.214 26.9943C105.972 27.1302 105.781 27.3274 105.642 27.5859C105.506 27.8445 105.438 28.1577 105.438 28.5256Z" fill="white"/>
    <path fill-rule="evenodd" clip-rule="evenodd" d="M143.167 18.0833C143.167 17.439 142.644 16.9167 142 16.9167C141.356 16.9167 140.833 17.439 140.833 18.0833V29.1667C140.833 29.811 141.356 30.3333 142 30.3333C142.644 30.3333 143.167 29.811 143.167 29.1667V18.0833ZM134.65 20.5015C135.11 20.0505 135.118 19.3118 134.666 18.8517C134.215 18.3916 133.477 18.3842 133.017 18.8353C130.642 21.1631 129.167 24.4103 129.167 28.0001C129.167 35.0877 134.912 40.8334 142 40.8334C149.088 40.8334 154.833 35.0877 154.833 28.0001C154.833 24.4103 153.358 21.1631 150.983 18.8353C150.523 18.3842 149.785 18.3916 149.334 18.8517C148.882 19.3118 148.89 20.0505 149.35 20.5015C151.295 22.4086 152.5 25.0626 152.5 28.0001C152.5 33.7991 147.799 38.5001 142 38.5001C136.201 38.5001 131.5 33.7991 131.5 28.0001C131.5 25.0626 132.705 22.4086 134.65 20.5015Z" fill="white"/>
</svg>
